# xmcd
#
# Track frame offsets:
#	150
#	19278
#	31948
#	44639
#	55240
#	68461
#	83953
#	97626
#	110937
#	121713
#	134091
#	148524
#
# Disc length: 2238 seconds
#
# Revision: 0
# Processed by: cddbd v1.5.1PL2 Copyright (c) Steve Scherf et al.
# Submitted via: EasyCDDAExtractor 8.2.3.1
#
DISCID=a408bc0c
DTITLE=Jacó e Jacózinho - Violeiro
DYEAR=1965
DGENRE=Sertanejo
TTITLE0=Velho valente
TTITLE1=Papai me disse
TTITLE2=Seis reis
TTITLE3=Se o governo me ajudasse
TTITLE4=Menina linda
TTITLE5=É fogo
TTITLE6=O peão e o ricaço
TTITLE7=Pagode dos três
TTITLE8=Pra roubar a prima
TTITLE9=Frango novo
TTITLE10=Não estou fazendo nada
TTITLE11=Tapa de luva
EXTD=
EXTT0=
EXTT1=
EXTT2=
EXTT3=
EXTT4=
EXTT5=
EXTT6=
EXTT7=
EXTT8=
EXTT9=
EXTT10=
EXTT11=
PLAYORDER=
